<svg xmlns="http://www.w3.org/2000/svg" viewBox="0 0 256 256">
  <rect width="256" height="256" rx="32" fill="#FFC600"/>
  <g transform="translate(0,256) scale(0.1,-0.1)" fill="#1a1a1a" stroke="none">
    <path d="M400 1959 c-13 -5 -40 -22 -58 -36 l-34 -26 4 -72 c4 -57 11 -83 37
-128 l32 -56 -23 -21 c-13 -12 -45 -33 -73 -47 -116 -59 -142 -95 -169 -241
-13 -70 -14 -101 -5 -180 11 -97 11 -97 59 -147 71 -75 77 -91 46 -124 -29
-31 -41 -84 -51 -231 l-7 -96 45 -54 c51 -64 109 -160 127 -211 22 -61 12 -69
-82 -70 -99 -2 -77 -2 -171 6 l-77 7 0 -116 0 -116 1280 0 1280 0 0 103 0 104
-142 6 c-79 4 -236 7 -350 7 -114 0 -218 4 -231 9 -22 9 -26 18 -33 78 -13
115 -11 318 4 335 7 9 33 18 59 21 48 5 73 25 73 59 0 22 -37 38 -91 38 l-39
0 0 94 c0 145 3 153 59 161 26 3 52 9 58 13 6 4 12 47 14 97 l4 90 -135 7
c-144 8 -183 15 -270 47 -30 11 -74 20 -97 21 -61 0 -421 77 -468 100 -22 11
-81 53 -131 93 -81 66 -100 76 -185 101 l-94 28 3 136 4 137 -39 38 c-43 41
-90 54 -133 36z m455 -673 c53 -24 58 -29 41 -38 -19 -11 -146 -5 -166 7 -6 3
-10 20 -10 37 0 30 1 30 38 25 20 -2 64 -17 97 -31z m739 -276 c71 -5 133 -13
138 -18 13 -13 6 -218 -8 -232 -6 -6 -129 -13 -331 -17 l-321 -6 -15 34 c-22
53 -119 136 -180 154 -69 20 -157 71 -157 91 0 15 35 16 373 9 204 -3 430 -10
501 -15z m95 -359 c16 -10 35 -300 22 -346 l-7 -30 -125 -7 c-567 -30 -795
-31 -805 -3 -15 38 89 215 193 329 35 38 48 46 80 47 21 1 110 5 198 9 244 10
429 11 444 1z m-945 -28 c-11 -46 -83 -184 -123 -238 -21 -27 -46 -65 -56 -84
-17 -33 -17 -33 -36 -14 -26 25 -83 246 -74 290 11 60 42 73 177 73 l118 0 -6
-27z"/>
  </g>
</svg>