<svg xmlns="http://www.w3.org/2000/svg" viewBox="0 0 256 256">
  <rect width="256" height="256" rx="32" fill="#0D0208"/>
  <g transform="translate(0,256) scale(0.1,-0.1)" fill="#00FF41" stroke="none">
    <path d="M0 1397 l0 -1164 83 -9 c122 -13 246 -7 254 13 13 34 -52 161 -134
263 l-45 54 7 96 c10 147 22 200 51 231 31 33 25 49 -46 124 -48 50 -48 50
-59 147 -9 79 -8 110 5 180 27 146 53 182 169 241 28 14 60 35 73 47 l23 21
-33 57 c-28 50 -32 66 -33 131 l0 75 43 30 c66 46 118 44 172 -9 l42 -40 -4
-137 -3 -136 94 -28 c85 -25 104 -35 185 -101 50 -40 109 -82 131 -93 47 -23
407 -100 468 -100 23 -1 67 -10 97 -21 87 -32 126 -39 270 -47 l135 -7 -4 -90
c-2 -50 -8 -93 -14 -97 -6 -4 -32 -10 -58 -13 -56 -8 -59 -16 -59 -161 l0 -94
39 0 c54 0 91 -16 91 -38 0 -34 -25 -54 -73 -59 -26 -3 -52 -12 -59 -21 -15
-17 -17 -220 -4 -335 6 -57 11 -69 29 -76 12 -5 181 -11 375 -14 l352 -6 0
1175 0 1174 -1280 0 -1280 0 0 -1163z M720 1292 c0 -17 4 -34 10 -37 20 -12
147 -18 166 -7 17 9 12 14 -41 38 -33 14 -77 29 -97 31 -37 5 -38 5 -38 -25z
M720 1016 c0 -20 88 -71 157 -91 61 -18 158 -101 180 -154 l15 -34 321 6 c202
4 325 11 331 17 14 14 21 219 8 232 -14 14 -230 26 -639 33 -338 7 -373 6
-373 -9z M1245 650 c-88 -4 -177 -8 -198 -9 -32 -1 -45 -9 -80 -47 -104 -114
-208 -291 -193 -329 10 -28 238 -27 805 3 l125 7 7 30 c13 46 -6 336 -22 346
-15 10 -200 9 -444 -1z M487 630 c-15 -12 -29 -36 -32 -53 -9 -44 48 -265 74
-290 19 -19 19 -19 36 14 10 19 35 57 56 84 40 54 112 192 123 238 l6 27 -118
0 c-105 0 -122 -2 -145 -20z"/>
  </g>
</svg>